<?xml version="1.0" encoding="utf-8"?>
<!-- Generator: Adobe Illustrator 16.0.0, SVG Export Plug-In . SVG Version: 6.00 Build 0)  -->
<!DOCTYPE svg PUBLIC "-//W3C//DTD SVG 1.1//EN" "http://www.w3.org/Graphics/SVG/1.1/DTD/svg11.dtd">
<svg version="1.1" id="Layer_1" xmlns="http://www.w3.org/2000/svg" xmlns:xlink="http://www.w3.org/1999/xlink" x="0px" y="0px"
	 width="60px" height="60px" viewBox="0 0 60 60" enable-background="new 0 0 60 60" xml:space="preserve">
<g>
	<polygon fill="#C7E2FA" points="46.8,17 13.25,17 30,27.899 	"/>
	<polygon fill="#C7E2FA" points="13,19.75 13,43 47,43 47,19.75 30,30.898 	"/>
	<path fill="#C7E2FA" d="M30,1.333C14.167,1.333,1.333,14.167,1.333,30c0,15.832,12.834,28.667,28.667,28.667
		c15.832,0,28.667-12.835,28.667-28.667C58.667,14.167,45.832,1.333,30,1.333z M50,43c0,0.799-0.3,1.5-0.9,2.1
		C48.5,45.7,47.8,46,47,46H13c-0.8,0-1.5-0.301-2.1-0.9C10.3,44.501,10,43.799,10,43V17c0-0.8,0.3-1.5,0.9-2.101
		C11.5,14.3,12.2,14,13,14h34c0.8,0,1.5,0.3,2.1,0.899C49.7,15.5,50,16.2,50,17V43z"/>
</g>
</svg>
