<?xml version="1.0" encoding="utf-8"?>
<!-- Generator: Adobe Illustrator 16.0.0, SVG Export Plug-In . SVG Version: 6.00 Build 0)  -->
<!DOCTYPE svg PUBLIC "-//W3C//DTD SVG 1.1//EN" "http://www.w3.org/Graphics/SVG/1.1/DTD/svg11.dtd">
<svg version="1.1" id="Layer_1" xmlns="http://www.w3.org/2000/svg" xmlns:xlink="http://www.w3.org/1999/xlink" x="0px" y="0px"
	 width="60px" height="60px" viewBox="19 18 60 60" enable-background="new 19 18 60 60" xml:space="preserve">
<path fill="#C7E2FA" d="M48.837,19.811c-15.865,0-28.691,12.92-28.691,28.904c0,12.776,8.218,23.592,19.618,27.42
	c1.426,0.287,1.948-0.622,1.948-1.388c0-0.67-0.047-2.967-0.047-5.359c-7.981,1.723-9.643-3.446-9.643-3.446
	c-1.283-3.349-3.183-4.21-3.183-4.21c-2.612-1.771,0.19-1.771,0.19-1.771c2.897,0.19,4.418,2.967,4.418,2.967
	c2.564,4.402,6.697,3.158,8.36,2.393c0.237-1.866,0.998-3.158,1.805-3.876c-6.365-0.671-13.063-3.159-13.063-14.261
	c0-3.158,1.14-5.742,2.945-7.752c-0.285-0.718-1.283-3.685,0.285-7.657c0,0,2.423-0.766,7.885,2.967
	c2.338-0.633,4.75-0.955,7.173-0.958c2.422,0,4.892,0.336,7.172,0.958c5.463-3.733,7.886-2.967,7.886-2.967
	c1.567,3.972,0.569,6.939,0.284,7.657c1.853,2.01,2.945,4.594,2.945,7.752c0,11.102-6.697,13.542-13.11,14.261
	c1.046,0.908,1.947,2.631,1.947,5.358c0,3.877-0.047,6.987-0.047,7.944c0,0.766,0.522,1.675,1.948,1.389
	C69.263,72.307,77.48,61.491,77.48,48.715C77.527,32.731,64.655,19.811,48.837,19.811z"/>
</svg>
