<?xml version="1.0" encoding="utf-8"?>
<!-- Generator: Adobe Illustrator 16.0.0, SVG Export Plug-In . SVG Version: 6.00 Build 0)  -->
<!DOCTYPE svg PUBLIC "-//W3C//DTD SVG 1.1//EN" "http://www.w3.org/Graphics/SVG/1.1/DTD/svg11.dtd">
<svg version="1.1" id="Layer_1" xmlns="http://www.w3.org/2000/svg" xmlns:xlink="http://www.w3.org/1999/xlink" x="0px" y="0px"
	 width="60px" height="60px" viewBox="0 0 60 60" enable-background="new 0 0 60 60" xml:space="preserve">
<g id="layer1" transform="translate(-200.55198,-393.96227)">
	<g id="g3019" transform="matrix(1.018827,0,0,-1.018827,170.5996,498.03288)">
		<path fill="#C7E2FA" d="M58.845,100.839c-15.54,0-28.137-12.597-28.137-28.137c0-15.539,12.597-28.137,28.137-28.137
			c15.539,0,28.137,12.598,28.137,28.137C86.982,88.242,74.384,100.839,58.845,100.839z M78.349,55.889
			c0-1.562-1.286-2.818-2.884-2.818H42.222c-1.593,0-2.884,1.256-2.884,2.818v33.633c0,1.553,1.291,2.81,2.884,2.81h33.243
			c1.598,0,2.884-1.257,2.884-2.81V55.889z"/>
		<path id="path28" fill="#C7E2FA" d="M51.166,59.462v17.735h-5.893V59.462H51.166z
			 M48.217,79.616c2.056,0,3.334,1.359,3.334,3.064c-0.039,1.74-1.278,3.063-3.295,3.063c-2.016,0-3.332-1.323-3.332-3.063
			c0-1.705,1.278-3.064,3.255-3.064H48.217L48.217,79.616z"/>
		<path id="path30" fill="#C7E2FA" d="M54.424,59.462h5.897v9.904
			c0,0.527,0.038,1.054,0.192,1.438c0.422,1.062,1.394,2.153,3.029,2.153c2.126,0,2.983-1.617,2.983-4.004v-9.491h5.887v10.17
			c0,5.445-2.906,7.98-6.785,7.98c-3.176,0-4.577-1.779-5.344-2.984h0.038v2.57h-5.897C54.502,75.529,54.424,59.462,54.424,59.462
			L54.424,59.462z"/>
	</g>
</g>
</svg>
