<?xml version="1.0" encoding="utf-8"?>
<!-- Generator: Adobe Illustrator 16.0.0, SVG Export Plug-In . SVG Version: 6.00 Build 0)  -->
<!DOCTYPE svg PUBLIC "-//W3C//DTD SVG 1.1//EN" "http://www.w3.org/Graphics/SVG/1.1/DTD/svg11.dtd">
<svg version="1.1" id="Layer_1" xmlns="http://www.w3.org/2000/svg" xmlns:xlink="http://www.w3.org/1999/xlink" x="0px" y="0px"
	 width="64px" height="32px" viewBox="0 0 64 32" enable-background="new 0 0 64 32" xml:space="preserve">
<path fill="#0F6FC6" d="M0.5,0.02c0,20.168,3.934,21.48,11.788,21.48c2.508,0,19.712,0,19.712,0c-0.001,0,17.203,0,19.711,0
	c7.855,0,11.789-1.312,11.789-21.48H0.5z"/>
<text transform="matrix(1 0 0 1 9.2227 17.4697)" font-family="'Lucida Sans'" font-size="16" font-weight="500" fill="#000000">Menú</text>
<path fill="none" stroke="#0F6FC6" stroke-miterlimit="10" d="M63.5,0.02c0,20.168-3.934,21.48-11.789,21.48
	c-2.508,0-19.712,0-19.711,0c0,0-17.204,0-19.712,0C4.434,21.5,0.5,20.188,0.5,0.02"/>
</svg>
