<?xml version="1.0" encoding="utf-8"?>
<!-- Generator: Adobe Illustrator 16.0.0, SVG Export Plug-In . SVG Version: 6.00 Build 0)  -->
<!DOCTYPE svg PUBLIC "-//W3C//DTD SVG 1.1//EN" "http://www.w3.org/Graphics/SVG/1.1/DTD/svg11.dtd">
<svg version="1.1" id="Layer_1" xmlns="http://www.w3.org/2000/svg" xmlns:xlink="http://www.w3.org/1999/xlink" x="0px" y="0px"
	 width="60px" height="60px" viewBox="-6 -6 60 60" enable-background="new -6 -6 60 60" xml:space="preserve">
<path fill="#C7E2FA" d="M24-4.667C8.167-4.667-4.667,8.167-4.667,24c0,15.832,12.834,28.667,28.667,28.667
	c15.832,0,28.667-12.835,28.667-28.667C52.667,8.167,39.832-4.667,24-4.667z M42,39.75c0,0.633-0.217,1.166-0.65,1.6
	S40.383,42,39.75,42c-3.867,0-7.809-0.934-11.825-2.8s-7.742-4.517-11.175-7.95s-6.083-7.158-7.95-11.175S6,12.117,6,8.25
	c0-0.633,0.217-1.167,0.65-1.6C7.083,6.217,7.617,6,8.25,6h7c0.467,0,0.867,0.167,1.2,0.5c0.333,0.333,0.566,0.75,0.7,1.25l1.35,6.3
	c0.067,0.467,0.058,0.892-0.025,1.275c-0.083,0.383-0.258,0.708-0.525,0.975l-5,5.05c0.867,1.466,1.783,2.833,2.75,4.1
	c0.966,1.267,2.033,2.466,3.2,3.6c1.233,1.267,2.533,2.425,3.9,3.476c1.367,1.05,2.8,1.975,4.3,2.774l4.75-4.899
	c0.334-0.367,0.717-0.617,1.15-0.75c0.434-0.134,0.867-0.167,1.3-0.101l5.95,1.3c0.5,0.134,0.916,0.4,1.25,0.801
	C41.834,32.05,42,32.5,42,33V39.75z"/>
</svg>
